<svg width="30" height="30" viewBox="0 0 32 30" fill="none" xmlns="http://www.w3.org/2000/svg">
<path id="Vector" d="M-6.24581e-07 15.0661C-6.55495e-07 15.7733 0.273378 16.4516 0.759994 16.9517C1.24661 17.4518 1.9066 17.7328 2.59478 17.7328L23.1454 17.7328L16.3298 24.7372C15.8715 25.2427 15.6219 25.9113 15.6338 26.6022C15.6457 27.293 15.918 27.9522 16.3934 28.4407C16.8688 28.9293 17.5102 29.2092 18.1824 29.2214C18.8546 29.2336 19.5052 28.9771 19.9971 28.5061L31.2411 16.9505C31.7271 16.4505 32 15.7728 32 15.0661C32 14.3594 31.7271 13.6816 31.2411 13.1816L19.9971 1.62608C19.7596 1.36409 19.4731 1.15395 19.1548 1.0082C18.8365 0.862447 18.4929 0.784076 18.1445 0.777758C17.7961 0.771441 17.45 0.837306 17.1269 0.971425C16.8038 1.10554 16.5103 1.30517 16.2639 1.55839C16.0176 1.81161 15.8233 2.11325 15.6928 2.44529C15.5623 2.77734 15.4982 3.133 15.5044 3.49105C15.5105 3.84911 15.5868 4.20222 15.7286 4.52933C15.8704 4.85644 16.0749 5.15084 16.3298 5.39497L23.1454 12.3994L2.59478 12.3994C1.16246 12.3994 -5.60238e-07 13.5941 -6.24581e-07 15.0661Z" fill="white"/>
</svg>
